<?xml version="1.0" encoding="UTF-8" standalone="no"?>
<svg
   xmlns:dc="http://purl.org/dc/elements/1.1/"
   xmlns:cc="http://creativecommons.org/ns#"
   xmlns:rdf="http://www.w3.org/1999/02/22-rdf-syntax-ns#"
   xmlns:svg="http://www.w3.org/2000/svg"
   xmlns="http://www.w3.org/2000/svg"
   xmlns:sodipodi="http://sodipodi.sourceforge.net/DTD/sodipodi-0.dtd"
   xmlns:inkscape="http://www.inkscape.org/namespaces/inkscape"
   viewBox="0 0 52 64"
   enable-background="new 0 0 52 64"
   id="svg3446"
   version="1.1"
   inkscape:version="0.91 r13725"
   sodipodi:docname="emoji-1f0cf.svg">
  <metadata
     id="metadata3480">
    <rdf:RDF>
      <cc:Work
         rdf:about="">
        <dc:format>image/svg+xml</dc:format>
        <dc:type
           rdf:resource="http://purl.org/dc/dcmitype/StillImage" />
        <dc:title></dc:title>
      </cc:Work>
    </rdf:RDF>
  </metadata>
  <defs
     id="defs3478" />
  <sodipodi:namedview
     pagecolor="#ffffff"
     bordercolor="#666666"
     borderopacity="1"
     objecttolerance="10"
     gridtolerance="10"
     guidetolerance="10"
     inkscape:pageopacity="0"
     inkscape:pageshadow="2"
     inkscape:window-width="846"
     inkscape:window-height="540"
     id="namedview3476"
     showgrid="false"
     inkscape:zoom="3.6875"
     inkscape:cx="32"
     inkscape:cy="32"
     inkscape:window-x="137"
     inkscape:window-y="5"
     inkscape:window-maximized="0"
     inkscape:current-layer="svg3446" />
  <g
     id="g3482"
     transform="translate(-5.6949153,0)">
    <path
       id="path3448"
       d="M 13,62.5 C 10,62.5 7.5,60 7.5,57 L 7.5,7 C 7.5,4 10,1.5 13,1.5 l 38,0 c 3,0 5.5,2.5 5.5,5.5 l 0,50 c 0,3 -2.5,5.5 -5.5,5.5 l -38,0 z"
       inkscape:connector-curvature="0"
       style="fill:#efeded" />
    <path
       id="path3450"
       d="m 51,3 c 2.2,0 4,1.8 4,4 l 0,50 c 0,2.2 -1.8,4 -4,4 L 13,61 C 10.8,61 9,59.2 9,57 L 9,7 C 9,4.8 10.8,3 13,3 L 51,3 M 51,0 13,0 C 9.1,0 6,3.1 6,7 l 0,50 c 0,3.9 3.1,7 7,7 l 38,0 c 3.9,0 7,-3.1 7,-7 L 58,7 C 58,3.1 54.9,0 51,0 Z"
       inkscape:connector-curvature="0"
       style="fill:#262626" />
    <path
       id="path3452"
       d="M 43.6,55.2 36.3,42.4 c -1.2,1.3 -2.7,4.2 -4.4,4.2 -1.7,0 -3.2,-2.9 -4.3,-4.2 l -7.3,12.8 8.7,-7.3 -0.9,7.3 3.9,-7.7 3.9,7.7 -0.8,-7.3 8.5,7.3"
       inkscape:connector-curvature="0"
       style="fill:#333333" />
    <path
       id="path3454"
       d="m 39.3,26.9 -14.6,0 c 0,0 -3,5.8 2.6,15.3 1.8,3 3.3,4.5 4.8,4.5 1.4,0 3,-1.5 4.8,-4.5 5.5,-9.6 2.4,-15.3 2.4,-15.3"
       inkscape:connector-curvature="0"
       style="fill:#fed0ac" />
    <g
       id="g3456"
       style="fill:#333333">
      <path
         id="path3458"
         d="m 35.6,39.6 c 0,0 -0.1,0.1 -0.3,0.2 -0.1,0.1 -0.2,0.2 -0.4,0.2 -0.1,0.1 -0.3,0.2 -0.5,0.3 -0.3,0.2 -0.7,0.4 -1.2,0.5 -0.2,0.1 -0.4,0.1 -0.6,0.1 -0.1,0 -0.1,0 -0.2,0 -0.1,0 -0.1,0 -0.2,0 l -0.1,0 -0.2,0 c -0.5,0 -0.9,-0.1 -1.3,-0.2 -0.4,-0.1 -0.8,-0.3 -1.1,-0.5 -0.3,-0.2 -0.6,-0.4 -0.8,-0.5 -0.2,-0.1 -0.3,-0.2 -0.3,-0.2 0,0 0,0 0,0.1 0,0.1 0,0.2 0,0.3 0.1,0.2 0.2,0.6 0.4,1 0.1,0.2 0.3,0.4 0.5,0.6 0.2,0.2 0.4,0.4 0.7,0.5 0.3,0.1 0.6,0.3 0.9,0.3 0.3,0.1 0.7,0.1 1,0.1 l 0.1,0 0.1,0 0.1,0 0.1,0 c 0.2,0 0.3,0 0.5,-0.1 0.3,-0.1 0.6,-0.2 0.9,-0.4 0.3,-0.2 0.5,-0.3 0.7,-0.5 0.2,-0.2 0.4,-0.4 0.5,-0.6 0.1,-0.2 0.2,-0.4 0.3,-0.5 0.1,-0.2 0.1,-0.3 0.1,-0.4 0.3,-0.1 0.3,-0.3 0.3,-0.3"
         inkscape:connector-curvature="0" />
      <path
         id="path3460"
         d="m 30.3,33.4 c 0,-0.1 -0.1,-0.1 -0.1,-0.2 0,0 0,-0.1 -0.1,-0.1 C 30,33 30,33 30,33 c 0,0 -0.1,-0.1 -0.1,-0.1 0,0 -0.1,-0.1 -0.1,-0.1 -0.1,0 -0.1,-0.1 -0.2,-0.1 -0.1,0 -0.1,-0.1 -0.2,-0.1 -0.1,-0.1 -0.3,-0.1 -0.5,-0.2 0,0 -0.1,0 -0.1,0 0,0 -0.1,0 -0.1,0 -0.1,0 -0.2,0 -0.3,0 -0.2,0 -0.3,0 -0.5,0.1 -0.2,0 -0.3,0.1 -0.4,0.2 -0.1,0.1 -0.3,0.1 -0.4,0.2 -0.1,0.1 -0.2,0.2 -0.3,0.2 -0.2,0.2 -0.2,0.3 -0.3,0.4 0,0.1 0,0.1 -0.1,0.1 -0.1,0 0.1,0 0.2,-0.1 0.1,-0.1 0.3,-0.1 0.5,-0.2 0.1,0 0.2,-0.1 0.3,-0.1 -0.1,0.1 -0.1,0.3 -0.1,0.4 0,0.5 0.5,1 1.1,1 0.6,0 1.1,-0.4 1.1,-1 0,-0.2 0,-0.3 -0.1,-0.4 0.1,0 0.1,0 0.1,0.1 0.1,0 0.1,0 0.1,0.1 0.1,0 0.2,0.1 0.3,0.1 0.1,0 0.2,0.1 0.2,0.1 0.1,0 0.1,0 0.1,0.1 0,0.1 0,0 0,0 0.1,-0.2 0.1,-0.2 0.1,-0.3"
         inkscape:connector-curvature="0" />
      <path
         id="path3462"
         d="m 37.6,33.5 c 0,0 0,-0.1 -0.1,-0.1 0,-0.1 -0.1,-0.1 -0.1,-0.2 0,0 -0.1,-0.1 -0.1,-0.1 0,0 -0.1,-0.1 -0.1,-0.1 0,0 -0.1,-0.1 -0.1,-0.1 0,0 -0.1,-0.1 -0.1,-0.1 -0.1,0 -0.1,-0.1 -0.2,-0.1 -0.1,0 -0.1,-0.1 -0.2,-0.1 -0.1,-0.1 -0.3,-0.1 -0.5,-0.2 0,0 -0.1,0 -0.1,0 0,0 -0.1,0 -0.1,0 -0.1,0 -0.2,0 -0.3,0 -0.2,0 -0.3,0 -0.5,0.1 -0.2,0 -0.3,0.1 -0.4,0.2 -0.1,0.1 -0.3,0.1 -0.4,0.2 -0.1,0.1 -0.2,0.2 -0.3,0.2 -0.2,0.2 -0.2,0.3 -0.3,0.4 0,0.1 0,0.1 -0.1,0.1 -0.1,0 0.1,0 0.2,-0.1 0.1,-0.1 0.3,-0.1 0.5,-0.2 0.1,0 0.2,-0.1 0.3,-0.1 -0.1,0.1 -0.1,0.3 -0.1,0.4 0,0.5 0.5,1 1.1,1 0.6,0 1.1,-0.4 1.1,-1 0,-0.2 0,-0.3 -0.1,-0.4 0.1,0 0.1,0 0.2,0.1 0,0 0.1,0 0.1,0.1 0.1,0 0.2,0.1 0.3,0.1 0.1,0 0.2,0.1 0.2,0.1 0.1,-0.1 0.1,-0.1 0.2,-0.1"
         inkscape:connector-curvature="0" />
      <path
         id="path3464"
         d="M 46.4,14.9 C 38.9,10.9 33.8,20 32,24.1 30.2,20 25.1,10.9 17.6,14.9 c -2.4,1.3 -4.7,3.8 -4.7,3.8 0,0 10.5,-1.3 11.2,10 2.2,-1.4 4.8,-4.1 7.7,-4.1 3,0 5.9,2.6 8.1,4.1 0.7,-11.5 11.2,-10 11.2,-10 0,0 -2.2,-2.5 -4.7,-3.8"
         inkscape:connector-curvature="0" />
    </g>
    <path
       id="path3466"
       d="M 39.3,26.5 C 38.8,24.7 36.8,17.2 32,10.7 l 0,-0.1 -0.1,0 0,0.1 c -5.4,7.5 -7.4,16.2 -7.4,16.2 -0.4,1 -0.7,2.2 -0.7,3.6 0,0 1.2,-3.6 4.4,-3.6 3.2,0 3.8,3.6 3.8,3.6 0,0 0.5,-3.6 3.8,-3.6 3.3,0 4.4,3.6 4.4,3.6 -0.1,-1.6 -0.5,-2.9 -0.9,-4"
       inkscape:connector-curvature="0"
       style="fill:#94989b" />
    <ellipse
       id="ellipse3468"
       ry="1.7"
       rx="1.9"
       cy="10.6"
       cx="32"
       style="fill:#333333" />
    <g
       id="g3470"
       style="fill:#94989b">
      <ellipse
         id="ellipse3472"
         ry="1.7"
         rx="1.9"
         cy="18.700001"
         cx="12.9" />
      <ellipse
         id="ellipse3474"
         ry="1.7"
         rx="1.9"
         cy="18.700001"
         cx="51.099998" />
    </g>
  </g>
</svg>
