<?xml version="1.0" encoding="UTF-8" standalone="no"?>
<!-- Generator: Adobe Illustrator 9.0, SVG Export Plug-In  -->

<!-- This set of SVG files is a complete cards game with figures, numbers	-->

<!--    and backs of cards completely designed in SVG.				-->

<!--    									-->

<!--    Copyright (C) 2004 David Bellot						-->

<!--										-->

<!--    This library is free software; you can redistribute it and/or		-->

<!--    modify it under the terms of the GNU Lesser General Public		-->

<!--    License as published by the Free Software Foundation; either		-->

<!--    version 2 of the License, or (at your option) any later version		-->

<!--										-->

<!--    This library is distributed in the hope that it will be useful,		-->

<!--    but WITHOUT ANY WARRANTY; without even the implied warranty of		-->

<!--    MERCHANTABILITY or FITNESS FOR A PARTICULAR PURPOSE.  See the GNU	-->

<!--    Lesser General Public License for more details.				-->

<!--										-->

<!--    You should have received a copy of the GNU Lesser General Public	-->

<!--    License along with this library; if not, write to the Free Software	-->

<!--    Foundation, Inc., 59 Temple Place, Suite 330, Boston, MA 02111-1307  USA-->

<!--										-->

<!--    Contact the author David Bellot at bellot@stat.berkeley.edu or 		-->

<!--    david.bellot@free.fr or yimyom@users.sourceforge.net			-->

<svg
   xmlns:dc="http://purl.org/dc/elements/1.1/"
   xmlns:cc="http://creativecommons.org/ns#"
   xmlns:rdf="http://www.w3.org/1999/02/22-rdf-syntax-ns#"
   xmlns:svg="http://www.w3.org/2000/svg"
   xmlns="http://www.w3.org/2000/svg"
   xmlns:sodipodi="http://sodipodi.sourceforge.net/DTD/sodipodi-0.dtd"
   xmlns:inkscape="http://www.inkscape.org/namespaces/inkscape"
   width="208"
   height="303"
   viewBox="0 0 167.1582 242.66699"
   xml:space="preserve"
   id="svg2"
   sodipodi:version="0.32"
   inkscape:version="0.47 r22583"
   sodipodi:docname="Card_back_red_stripe.svg"
   inkscape:output_extension="org.inkscape.output.svg.inkscape"
   version="1.0"><metadata
   id="metadata154"><rdf:RDF><cc:Work
       rdf:about=""><dc:format>image/svg+xml</dc:format><dc:type
         rdf:resource="http://purl.org/dc/dcmitype/StillImage" /><dc:title></dc:title></cc:Work></rdf:RDF></metadata><defs
   id="defs152"><inkscape:perspective
     sodipodi:type="inkscape:persp3d"
     inkscape:vp_x="0 : 151.5 : 1"
     inkscape:vp_y="0 : 1000 : 0"
     inkscape:vp_z="208 : 151.5 : 1"
     inkscape:persp3d-origin="104 : 101 : 1"
     id="perspective80" /></defs><sodipodi:namedview
   inkscape:window-height="573"
   inkscape:window-width="791"
   inkscape:pageshadow="2"
   inkscape:pageopacity="0.0"
   guidetolerance="10.0"
   gridtolerance="10.0"
   objecttolerance="10.0"
   borderopacity="1.0"
   bordercolor="#666666"
   pagecolor="#ffffff"
   id="base"
   inkscape:showpageshadow="false"
   width="208px"
   height="303px"
   inkscape:zoom="1.2428555"
   inkscape:cx="104.47388"
   inkscape:cy="200.37692"
   inkscape:window-x="259"
   inkscape:window-y="275"
   inkscape:current-layer="svg2"
   showgrid="false"
   inkscape:window-maximized="0" />
	<g
   id="Layer_x0020_1"
   style="fill:#0000ff;fill-rule:nonzero;stroke:#d11209;stroke-width:0.10382732;stroke-miterlimit:4"
   transform="matrix(1,0,0,1.0034584,0,-0.4196198)">
		<path
   style="fill:#ffffff;stroke:#000000;stroke-width:0.49913764"
   d="m 166.8291,235.54785 c 0,3.77539 -3.08594,6.86914 -6.86914,6.86914 l -152.8486319,0 C 3.3364258,242.41699 0.25,239.32324 0.25,235.54785 L 0.25,7.1201172 C 0.25,3.3452148 3.3364258,0.25 7.1113281,0.25 l 152.8486319,0 c 3.7832,0 6.86914,3.0952148 6.86914,6.8701172 l 0,228.4277328 0,0 z"
   id="path5" />
		<path
   style="fill-rule:evenodd;stroke-width:0.10382732;stroke-miterlimit:10"
   d="m 145.8877,0.5009766 4.15332,0 16.61425,16.6679684 0,4.166993 L 145.8877,0.5009766 z"
   id="path7" />
		<path
   style="fill:none;stroke:none"
   d="m 0.3515625,0.2001953 166.8066375,0 0,242.1210947 -166.8066375,0 0,-242.1210947 z"
   id="path9" />
		<path
   style="fill-rule:evenodd;stroke-width:0.10382732;stroke-miterlimit:10"
   d="m 137.58105,0.5009766 4.15235,0 24.92187,25.0019534 0,4.166992 -29.07422,-29.1689454 z"
   id="path11" />
		<path
   style="fill-rule:evenodd;stroke-width:0.10382732;stroke-miterlimit:10"
   d="m 155.2334,0.5009766 4.15234,0 7.26953,7.2919922 0,4.1669922 -11.42187,-11.4589844 0,0 z"
   id="path13" />
		<path
   style="fill:none;stroke:none"
   d="m 0.3515625,0.2001953 166.8066375,0 0,242.1210947 -166.8066375,0 0,-242.1210947 z"
   id="path15" />
		<path
   style="fill-rule:evenodd;stroke-width:0.10382732;stroke-miterlimit:10"
   d="m 129.27246,0.5009766 4.1543,0 33.22851,33.3359374 0,4.166992 -37.38281,-37.5029294 z"
   id="path17" />
		<path
   style="fill-rule:evenodd;stroke-width:0.10382732;stroke-miterlimit:10"
   d="m 120.96582,0.5009766 4.1543,0 41.53515,41.6699224 0,4.166992 -45.68945,-45.8369144 z"
   id="path19" />
		<path
   style="fill:none;stroke:none"
   d="m 0.3515625,0.2001953 166.8066375,0 0,242.1210947 -166.8066375,0 0,-242.1210947 z"
   id="path21" />
		<path
   style="fill-rule:evenodd;stroke-width:0.10382732;stroke-miterlimit:10"
   d="m 112.64551,0.4873047 4.15234,0 49.85742,50.0175783 0,4.166992 -54.00976,-54.1845703 z"
   id="path23" />
		<path
   style="fill-rule:evenodd;stroke-width:0.10382732;stroke-miterlimit:10"
   d="m 87.709961,0.4731445 4.154297,0 74.791012,75.0336915 0.16602,4.208496 L 87.709961,0.4731445 z"
   id="path25" />
		<path
   style="fill:none;stroke:none"
   d="m 0.3515625,0.2001953 166.8066375,0 0,242.1210947 -166.8066375,0 0,-242.1210947 z"
   id="path27" />
		<path
   style="fill-rule:evenodd;stroke-width:0.10382732;stroke-miterlimit:10"
   d="m 62.774902,0.4589844 4.153809,0 99.726559,100.0498056 -0.041,4.00049 L 62.774902,0.4589844 z"
   id="path29" />
		<path
   style="fill-rule:evenodd;stroke-width:0.10382732;stroke-miterlimit:10"
   d="m 71.082031,0.4589844 4.153321,0 91.419918,91.7158206 -0.041,4.097656 L 71.082031,0.4589844 z"
   id="path31" />
		<path
   style="fill:none;stroke:none"
   d="m 0.3515625,0.2001953 166.8066375,0 0,242.1210947 -166.8066375,0 0,-242.1210947 z"
   id="path33" />
		<path
   style="fill-rule:evenodd;stroke-width:0.10382732;stroke-miterlimit:10"
   d="m 54.467773,0.4589844 4.153809,0 108.033688,108.3837856 0.0693,4.09766 L 54.467773,0.4589844 z"
   id="path35" />
		<path
   style="fill-rule:evenodd;stroke-width:0.10382732;stroke-miterlimit:10"
   d="m 46.160644,0.4589844 4.153809,0 116.340817,116.7177756 -0.041,4.20898 L 46.160644,0.4589844 z"
   id="path37" />
		<path
   style="fill:none;stroke:none"
   d="m 0.3515625,0.2001953 166.8066375,0 0,242.1210947 -166.8066375,0 0,-242.1210947 z"
   id="path39" />
		<path
   style="fill-rule:evenodd;stroke-width:0.10382732;stroke-miterlimit:10"
   d="m 37.854004,0.4589844 4.15332,0 124.647946,125.0517556 0,4.16699 L 37.854004,0.4589844 z"
   id="path41" />
		<path
   style="fill-rule:evenodd;stroke-width:0.10382732;stroke-miterlimit:10"
   d="m 29.546875,0.4589844 4.15332,0 132.955075,133.3857456 0,4.16699 L 29.546875,0.4589844 z"
   id="path43" />
		<path
   style="fill:none;stroke:none"
   d="m 0.3515625,0.2001953 166.8066375,0 0,242.1210947 -166.8066375,0 0,-242.1210947 z"
   id="path45" />
		<path
   style="fill-rule:evenodd;stroke-width:0.10382732;stroke-miterlimit:10"
   d="m 21.239258,0.4589844 4.153808,0 141.262204,141.7197256 0,4.16699 L 21.239258,0.4589844 z"
   id="path47" />
		<path
   style="fill-rule:evenodd;stroke-width:0.10382732;stroke-miterlimit:10"
   d="m 12.932617,0.4589844 4.153321,0 149.569332,150.0537156 0,4.16699 L 12.932617,0.4589844 z"
   id="path49" />
		<path
   style="fill:none;stroke:none"
   d="m 0.3515625,0.2001953 166.8066375,0 0,242.1210947 -166.8066375,0 0,-242.1210947 z"
   id="path51" />
		<path
   style="fill-rule:evenodd;stroke-width:0.10382732;stroke-miterlimit:10"
   d="M 5.6357422,0.8896484 8.8896485,0.4316406 166.65527,158.84668 l 0,4.16699 L 4.9438477,0.9594727"
   id="path53" />
		<path
   style="fill-rule:evenodd;stroke-width:0.10382732;stroke-miterlimit:10"
   d="m 104.35156,0.5009766 4.15332,0 58.15039,58.3378904 0,4.166992 -62.30371,-62.5048824 z"
   id="path55" />
		<path
   style="fill:none;stroke:none"
   d="m 0.3515625,0.2001953 166.8066375,0 0,242.1210947 -166.8066375,0 0,-242.1210947 z"
   id="path57" />
		<path
   style="fill-rule:evenodd;stroke-width:0.10382732;stroke-miterlimit:10"
   d="m 96.044922,0.5009766 4.153318,0 66.45703,66.6718754 0,4.166992 L 96.044922,0.5009766 z"
   id="path59" />
		<path
   style="fill-rule:evenodd;stroke-width:0.10382732;stroke-miterlimit:10"
   d="m 79.402832,0.4731445 4.152832,0 83.099606,83.3676755 0.0693,4.208985 L 79.402832,0.4731445 z"
   id="path61" />
		<path
   style="fill:none;stroke:none"
   d="m 0.3515625,0.2001953 166.8066375,0 0,242.1210947 -166.8066375,0 0,-242.1210947 z"
   id="path63" />
		<path
   style="fill-rule:evenodd;stroke-width:0.10382732;stroke-miterlimit:10"
   d="M 1.8286133,3.7651367 2.6591797,2.6264648 166.65527,167.18066 l 0,4.167 L 0.9980469,5.1264648"
   id="path65" />
		<path
   style="fill-rule:evenodd;stroke-width:0.10382732;stroke-miterlimit:10"
   d="m 0.5136719,13.001953 0,-4.1669921 166.1415981,166.6796891 0,4.16699 L 4.6669922,17.168945"
   id="path67" />
		<path
   style="fill:none;stroke:none"
   d="m 0.3515625,0.2001953 166.8066375,0 0,242.1210947 -166.8066375,0 0,-242.1210947 z"
   id="path69" />
		<path
   style="fill-rule:evenodd;stroke-width:0.10382732;stroke-miterlimit:10"
   d="m 0.5136719,21.335938 0,-4.166993 166.1415981,166.679685 0,4.167 L 4.6669922,25.50293"
   id="path71" />
		<path
   style="fill-rule:evenodd;stroke-width:0.10382732;stroke-miterlimit:10"
   d="m 0.5136719,29.669922 0,-4.166992 166.1415981,166.67969 0,4.16699 L 4.6669922,33.836914"
   id="path73" />
		<path
   style="fill:none;stroke:none"
   d="m 0.3515625,0.2001953 166.8066375,0 0,242.1210947 -166.8066375,0 0,-242.1210947 z"
   id="path75" />
		<path
   style="fill-rule:evenodd;stroke-width:0.10382732;stroke-miterlimit:10"
   d="m 0.5136719,46.337891 0,-4.166993 166.1415981,166.679692 0,4.16699 L 4.6669922,50.504883"
   id="path77" />
		<path
   style="fill-rule:evenodd;stroke-width:0.10382732;stroke-miterlimit:10"
   d="m 0.5136719,38.003906 0,-4.166992 166.1415981,166.679686 0,4.16699 L 4.6669922,42.170898"
   id="path79" />
		<path
   style="fill:none;stroke:none"
   d="m 0.3515625,0.2001953 166.8066375,0 0,242.1210947 -166.8066375,0 0,-242.1210947 z"
   id="path81" />
		<path
   style="fill-rule:evenodd;stroke-width:0.10382732;stroke-miterlimit:10"
   d="m 0.5136719,54.671875 0,-4.166992 166.1415981,166.679687 0,4.16699 L 4.6669922,58.838867"
   id="path83" />
		<path
   style="fill-rule:evenodd;stroke-width:0.10382732;stroke-miterlimit:10"
   d="m 0.5136719,63.005859 0,-4.166992 166.1415981,166.679683 0,4.167 L 4.6669922,67.172852"
   id="path85" />
		<path
   style="fill:none;stroke:none"
   d="m 0.3515625,0.2001953 166.8066375,0 0,242.1210947 -166.8066375,0 0,-242.1210947 z"
   id="path87" />
		<path
   style="fill-rule:evenodd;stroke-width:0.10382732;stroke-miterlimit:10"
   d="m 0.5136719,71.339844 0,-4.166992 166.1415981,166.679688 0,4.16699 L 4.6669922,75.506836"
   id="path89" />
		<path
   style="fill-rule:evenodd;stroke-width:0.10382732;stroke-miterlimit:10"
   d="m 0.5136719,88.007813 0,-4.166993 157.8349581,158.3457 -4.15429,0 L 4.6669922,92.174805"
   id="path91" />
		<path
   style="fill:none;stroke:none"
   d="m 0.3515625,0.2001953 166.8066375,0 0,242.1210947 -166.8066375,0 0,-242.1210947 z"
   id="path93" />
		<path
   style="fill-rule:evenodd;stroke-width:0.10382732;stroke-miterlimit:10"
   d="m 0.5136719,96.341797 0,-4.166992 149.5273481,150.011715 -4.15332,0 L 4.6669922,100.50879"
   id="path95" />
		<path
   style="fill-rule:evenodd;stroke-width:0.10382732;stroke-miterlimit:10"
   d="m 0.5136719,104.67578 0,-4.16699 141.2197281,141.67773 -4.15235,0 L 4.6669922,108.84277"
   id="path97" />
		<path
   style="fill:none;stroke:none"
   d="m 0.3515625,0.2001953 166.8066375,0 0,242.1210947 -166.8066375,0 0,-242.1210947 z"
   id="path99" />
		<path
   style="fill-rule:evenodd;stroke-width:0.10382732;stroke-miterlimit:10"
   d="m 0.5136719,113.00977 0,-4.167 132.9130881,133.34375 -4.1543,0 L 4.6669922,117.17676"
   id="path101" />
		<path
   style="fill-rule:evenodd;stroke-width:0.10382732;stroke-miterlimit:10"
   d="m 0.5136719,121.34375 0,-4.16699 124.6064481,125.00976 -4.1543,0 L 4.6669922,125.51074"
   id="path103" />
		<path
   style="fill:none;stroke:none"
   d="m 0.3515625,0.2001953 166.8066375,0 0,242.1210947 -166.8066375,0 0,-242.1210947 z"
   id="path105" />
		<path
   style="fill-rule:evenodd;stroke-width:0.10382732;stroke-miterlimit:10"
   d="m 0.5136719,79.673828 0,-4.166992 164.0644581,164.596684 -1.03809,1.04199 -2.07617,0 L 4.6669922,83.84082"
   id="path107" />
		<path
   style="fill-rule:evenodd;stroke-width:0.10382732;stroke-miterlimit:10"
   d="m 0.5136719,129.67773 0,-4.16699 116.2988281,116.67578 -4.15332,0 L 0.5136719,129.67773 z"
   id="path109" />
		<path
   style="fill:none;stroke:none"
   d="m 0.3515625,0.2001953 166.8066375,0 0,242.1210947 -166.8066375,0 0,-242.1210947 z"
   id="path111" />
		<path
   style="fill-rule:evenodd;stroke-width:0.10382732;stroke-miterlimit:10"
   d="m 0.5136719,138.01172 0,-4.16699 107.9912081,108.34179 -4.15332,0 L 0.5136719,138.01172 z"
   id="path113" />
		<path
   style="fill-rule:evenodd;stroke-width:0.10382732;stroke-miterlimit:10"
   d="m 0.5136719,146.3457 0,-4.16699 99.6845681,100.00781 -4.153318,0 -95.5312501,-95.84082 0,0 z"
   id="path115" />
		<path
   style="fill:none;stroke:none"
   d="m 0.3515625,0.2001953 166.8066375,0 0,242.1210947 -166.8066375,0 0,-242.1210947 z"
   id="path117" />
		<path
   style="fill-rule:evenodd;stroke-width:0.10382732;stroke-miterlimit:10"
   d="m 0.5136719,154.67969 0,-4.16699 91.3779301,91.67382 -4.154297,0 -87.2236331,-87.50683 z"
   id="path119" />
		<path
   style="fill-rule:evenodd;stroke-width:0.10382732;stroke-miterlimit:10"
   d="m 0.5136719,163.01367 0,-4.16699 83.0712891,83.33984 -4.153809,0 -78.9174801,-79.17285 z"
   id="path121" />
		<path
   style="fill:none;stroke:none"
   d="m 0.3515625,0.2001953 166.8066375,0 0,242.1210947 -166.8066375,0 0,-242.1210947 z"
   id="path123" />
		<path
   style="fill-rule:evenodd;stroke-width:0.10382732;stroke-miterlimit:10"
   d="m 0.5136719,171.34766 0,-4.167 74.7636721,75.00586 -4.153809,0 -70.6098631,-70.83886 z"
   id="path125" />
		<path
   style="fill-rule:evenodd;stroke-width:0.10382732;stroke-miterlimit:10"
   d="m 0.5136719,179.68164 0,-4.16699 66.4565431,66.67187 -4.153809,0 -62.3027341,-62.50488 z"
   id="path127" />
		<path
   style="fill:none;stroke:none"
   d="m 0.3515625,0.2001953 166.8066375,0 0,242.1210947 -166.8066375,0 0,-242.1210947 z"
   id="path129" />
		<path
   style="fill-rule:evenodd;stroke-width:0.10382732;stroke-miterlimit:10"
   d="m 0.5136719,188.01563 0,-4.167 58.1494141,58.33789 -4.15332,0 -53.9960941,-54.17089 z"
   id="path131" />
		<path
   style="fill-rule:evenodd;stroke-width:0.10382732;stroke-miterlimit:10"
   d="m 0.5136719,196.34961 0,-4.16699 49.8422851,50.0039 -4.15332,0 -45.6889651,-45.83691 z"
   id="path133" />
		<path
   style="fill:none;stroke:none"
   d="m 0.3515625,0.2001953 166.8066375,0 0,242.1210947 -166.8066375,0 0,-242.1210947 z"
   id="path135" />
		<path
   style="fill-rule:evenodd;stroke-width:0.10382732;stroke-miterlimit:10"
   d="m 0.5136719,204.68359 0,-4.16699 41.5351561,41.66992 -4.15332,0 -37.3818361,-37.50293 z"
   id="path137" />
		<path
   style="fill-rule:evenodd;stroke-width:0.10382732;stroke-miterlimit:10"
   d="m 0.5136719,213.01758 0,-4.16699 33.2280271,33.33593 -4.15332,0 -29.0747071,-29.16894 0,0 z"
   id="path139" />
		<path
   style="fill:none;stroke:none"
   d="m 0.3515625,0.2001953 166.8066375,0 0,242.1210947 -166.8066375,0 0,-242.1210947 z"
   id="path141" />
		<path
   style="fill-rule:evenodd;stroke-width:0.10382732;stroke-miterlimit:10"
   d="m 0.5136719,221.35156 0,-4.16699 24.9208981,25.00195 -4.15332,0 -20.7675781,-20.83496 z"
   id="path143" />
		<path
   style="fill-rule:evenodd;stroke-width:0.10382732;stroke-miterlimit:10"
   d="m 0.5136719,229.68555 0,-4.167 16.6137691,16.66797 -4.15332,0 -12.4604491,-12.50097 z"
   id="path145" />
		<path
   style="fill:none;stroke:none"
   d="m 0.3515625,0.2001953 166.8066375,0 0,242.1210947 -166.8066375,0 0,-242.1210947 z"
   id="path147" />
		<path
   style="fill-rule:evenodd;stroke-width:0.10382732;stroke-miterlimit:10"
   d="m 0.5136719,236.97754 0,-3.125 8.3071289,8.33398 -2.0771485,0 -4.1533203,-2.083"
   id="path149" />
	</g>
</svg>