<?xml version="1.0" encoding="utf-8"?>
<!-- Generated by IcoMoon.io -->
<!DOCTYPE svg PUBLIC "-//W3C//DTD SVG 1.1//EN" "http://www.w3.org/Graphics/SVG/1.1/DTD/svg11.dtd">
<svg version="1.1" xmlns="http://www.w3.org/2000/svg" xmlns:xlink="http://www.w3.org/1999/xlink" width="11" height="32" viewBox="0 0 11 32">
<path d="M10.166 32h-9.65c-0.171 0-0.331-0.084-0.426-0.226-0.096-0.141-0.115-0.321-0.052-0.48l4.825-12.078c0.078-0.196 0.268-0.324 0.478-0.324s0.4 0.128 0.478 0.324l4.825 12.078c0.063 0.159 0.044 0.339-0.052 0.48s-0.255 0.226-0.426 0.226zM1.276 30.97h8.13l-4.065-10.175-4.064 10.175z"></path>
<path d="M4.449 29.194c0-0.003 0-0.007 0.001-0.011 0.055-0.567 0.566-1.607 0.763-1.992 0.032-0.063 0.122-0.063 0.154 0 0.197 0.385 0.707 1.428 0.763 1.989 0 0.006 0.001 0.011 0.001 0.017 0.003 0.027 0.005 0.054 0.005 0.078 0 0.467-0.379 0.845-0.846 0.845s-0.846-0.378-0.846-0.845c0-0.026 0.002-0.054 0.005-0.081z"></path>
</svg>
