<?xml version="1.0" encoding="utf-8"?>
<!-- Generated by IcoMoon.io -->
<!DOCTYPE svg PUBLIC "-//W3C//DTD SVG 1.1//EN" "http://www.w3.org/Graphics/SVG/1.1/DTD/svg11.dtd">
<svg version="1.1" xmlns="http://www.w3.org/2000/svg" xmlns:xlink="http://www.w3.org/1999/xlink" width="18" height="32" viewBox="0 0 18 32">
<path d="M17.504 32h-16.997c-0.173 0-0.333-0.087-0.429-0.23s-0.113-0.326-0.046-0.485l8.498-20.17c0.080-0.191 0.268-0.315 0.475-0.315s0.394 0.124 0.474 0.315l8.498 20.17c0.067 0.16 0.050 0.341-0.045 0.485s-0.256 0.23-0.429 0.23zM1.284 30.97h15.445l-7.723-18.328-7.722 18.328z"></path>
<path d="M3.316 29.193c0-0.004 0-0.008 0.001-0.011 0.054-0.567 0.566-1.608 0.763-1.992 0.032-0.063 0.122-0.063 0.154 0 0.197 0.386 0.707 1.429 0.763 1.989 0 0.006 0.001 0.011 0.002 0.017 0.003 0.027 0.004 0.054 0.004 0.078 0 0.467-0.378 0.846-0.846 0.846-0.467 0-0.845-0.379-0.845-0.846 0.001-0.026 0.002-0.053 0.005-0.080z"></path>
<path d="M5.626 29.193c0-0.004 0-0.008 0.001-0.011 0.054-0.567 0.566-1.608 0.763-1.992 0.032-0.063 0.122-0.063 0.154 0 0.197 0.386 0.707 1.429 0.763 1.989 0.001 0.006 0.001 0.011 0.002 0.017 0.003 0.027 0.004 0.054 0.004 0.078 0 0.467-0.379 0.846-0.846 0.846-0.467 0-0.846-0.379-0.846-0.846 0.001-0.026 0.002-0.053 0.005-0.080z"></path>
<path d="M7.936 29.193c0-0.004 0-0.008 0.001-0.011 0.055-0.567 0.566-1.608 0.763-1.992 0.032-0.063 0.123-0.063 0.155 0 0.197 0.386 0.707 1.429 0.763 1.989 0.001 0.006 0.001 0.011 0.002 0.017 0.002 0.027 0.004 0.054 0.004 0.078 0 0.467-0.379 0.846-0.846 0.846s-0.846-0.379-0.846-0.846c0-0.026 0.002-0.053 0.004-0.080z"></path>
</svg>
