<?xml version="1.0" encoding="utf-8"?>
<!-- Generated by IcoMoon.io -->
<!DOCTYPE svg PUBLIC "-//W3C//DTD SVG 1.1//EN" "http://www.w3.org/Graphics/SVG/1.1/DTD/svg11.dtd">
<svg version="1.1" xmlns="http://www.w3.org/2000/svg" xmlns:xlink="http://www.w3.org/1999/xlink" width="14" height="32" viewBox="0 0 14 32">
<path d="M13.368 32h-12.853c-0.169 0-0.328-0.082-0.423-0.223-0.097-0.139-0.118-0.317-0.058-0.475l6.427-16.988c0.076-0.201 0.268-0.333 0.482-0.333v0c0.214 0 0.406 0.132 0.482 0.333l6.426 16.988c0.060 0.158 0.038 0.336-0.058 0.475-0.097 0.14-0.256 0.223-0.425 0.223zM1.261 30.97h11.362l-5.68-15.017-5.681 15.017z"></path>
<path d="M3.301 29.194c0.001-0.003 0.001-0.007 0.002-0.011 0.054-0.567 0.566-1.607 0.763-1.992 0.032-0.063 0.122-0.063 0.154 0 0.197 0.385 0.707 1.428 0.763 1.989 0.001 0.006 0.001 0.011 0.002 0.017 0.003 0.027 0.004 0.054 0.004 0.078 0 0.467-0.379 0.845-0.846 0.845-0.467 0-0.846-0.378-0.846-0.845 0.001-0.026 0.002-0.054 0.005-0.081z"></path>
<path d="M5.611 29.194c0-0.003 0-0.007 0.001-0.011 0.054-0.567 0.566-1.607 0.763-1.992 0.032-0.063 0.122-0.063 0.154 0 0.197 0.385 0.707 1.428 0.763 1.989 0.001 0.006 0.001 0.011 0.002 0.017 0.002 0.027 0.004 0.054 0.004 0.078 0 0.467-0.379 0.845-0.846 0.845-0.467 0-0.846-0.378-0.846-0.845 0-0.026 0.002-0.054 0.005-0.081z"></path>
</svg>
