<svg xmlns="http://www.w3.org/2000/svg" viewBox="0 0 512 512" style="height: 512px; width: 512px;"><path d="M0 0h512v512H0z" fill="none"></path><g class="" transform="translate(0,0)" style=""><g><path class="" fill="#000000" d="M333.78 20.188C293.81 20.188 253.82 35.4 223.375 65.844C164.708 124.511 162.579 218.564 216.969 279.814L201.187 295.562L214.437 308.812L230.187 293.032C291.435 347.422 385.487 345.292 444.155 286.625C505.042 225.739 505.043 126.731 444.155 65.845C413.713 35.4 373.753 20.187 333.78 20.187Z"></path><path class="" fill="#D2B916" d="M333.78 38.75C368.93 38.75 404.065 52.19 430.938 79.063C484.683 132.808 484.682 219.663 430.938 273.406C379.412 324.932 297.478 327.049 243.438 279.781L243.656 279.564C241.306 277.514 238.988 275.394 236.75 273.157C234.543 270.951 232.462 268.661 230.437 266.345L230.219 266.565C182.949 212.525 185.067 130.589 236.593 79.063C263.467 52.19 298.63 38.75 333.78 38.75Z"></path><path class="" fill="#EFE9B5" d="M333.78 57.563C303.47 57.563 273.15 69.163 249.97 92.343C203.608 138.705 203.608 213.577 249.97 259.937C260.11 270.079 271.602 278.014 283.875 283.719C258.965 264.632 242.905 234.586 242.905 200.779C242.905 185.456 246.197 170.891 252.125 157.779C247.96 178.264 252.565 198.659 266.595 212.686C291.178 237.271 335.339 233.004 365.219 203.124C395.099 173.244 399.365 129.084 374.779 104.499C372.404 102.123 369.836 100.026 367.124 98.186C412.254 106.834 447.078 144.531 451.374 191.062C455.814 155.992 444.554 119.336 417.561 92.342C394.381 69.162 364.091 57.562 333.781 57.562Z"></path><path class="" fill="#000000" d="M176.907 297.688L42.094 432.5L76.656 467.063L211.47 332.25L176.906 297.687Z"></path><path class="selected" fill="#000000" d="M40 456.813L24 472.78L37.22 486L53.188 470L40 456.812Z"></path></g></g></svg>
